<svg width="72" height="72" viewBox="0 0 72 72" fill="none" xmlns="http://www.w3.org/2000/svg">
<path d="M48 42H24C23.2044 42 22.4413 42.3161 21.8787 42.8787C21.3161 43.4413 21 44.2044 21 45C21 45.7956 21.3161 46.5587 21.8787 47.1213C22.4413 47.6839 23.2044 48 24 48H48C48.7956 48 49.5587 47.6839 50.1213 47.1213C50.6839 46.5587 51 45.7956 51 45C51 44.2044 50.6839 43.4413 50.1213 42.8787C49.5587 42.3161 48.7956 42 48 42ZM48 30H30C29.2044 30 28.4413 30.3161 27.8787 30.8787C27.3161 31.4413 27 32.2044 27 33C27 33.7956 27.3161 34.5587 27.8787 35.1213C28.4413 35.6839 29.2044 36 30 36H48C48.7956 36 49.5587 35.6839 50.1213 35.1213C50.6839 34.5587 51 33.7956 51 33C51 32.2044 50.6839 31.4413 50.1213 30.8787C49.5587 30.3161 48.7956 30 48 30ZM60 12H51V9C51 8.20435 50.6839 7.44129 50.1213 6.87868C49.5587 6.31607 48.7956 6 48 6C47.2044 6 46.4413 6.31607 45.8787 6.87868C45.3161 7.44129 45 8.20435 45 9V12H39V9C39 8.20435 38.6839 7.44129 38.1213 6.87868C37.5587 6.31607 36.7956 6 36 6C35.2044 6 34.4413 6.31607 33.8787 6.87868C33.3161 7.44129 33 8.20435 33 9V12H27V9C27 8.20435 26.6839 7.44129 26.1213 6.87868C25.5587 6.31607 24.7956 6 24 6C23.2044 6 22.4413 6.31607 21.8787 6.87868C21.3161 7.44129 21 8.20435 21 9V12H12C11.2044 12 10.4413 12.3161 9.87868 12.8787C9.31607 13.4413 9 14.2044 9 15V57C9 59.3869 9.94821 61.6761 11.636 63.364C13.3239 65.0518 15.6131 66 18 66H54C56.3869 66 58.6761 65.0518 60.364 63.364C62.0518 61.6761 63 59.3869 63 57V15C63 14.2044 62.6839 13.4413 62.1213 12.8787C61.5587 12.3161 60.7956 12 60 12V12ZM57 57C57 57.7956 56.6839 58.5587 56.1213 59.1213C55.5587 59.6839 54.7956 60 54 60H18C17.2044 60 16.4413 59.6839 15.8787 59.1213C15.3161 58.5587 15 57.7956 15 57V18H21V21C21 21.7956 21.3161 22.5587 21.8787 23.1213C22.4413 23.6839 23.2044 24 24 24C24.7956 24 25.5587 23.6839 26.1213 23.1213C26.6839 22.5587 27 21.7956 27 21V18H33V21C33 21.7956 33.3161 22.5587 33.8787 23.1213C34.4413 23.6839 35.2044 24 36 24C36.7956 24 37.5587 23.6839 38.1213 23.1213C38.6839 22.5587 39 21.7956 39 21V18H45V21C45 21.7956 45.3161 22.5587 45.8787 23.1213C46.4413 23.6839 47.2044 24 48 24C48.7956 24 49.5587 23.6839 50.1213 23.1213C50.6839 22.5587 51 21.7956 51 21V18H57V57Z" fill="white"/>
</svg>
