<svg width="486" height="90" viewBox="0 0 486 90" fill="none" xmlns="http://www.w3.org/2000/svg">
<path d="M48 51H24C23.2044 51 22.4413 51.3161 21.8787 51.8787C21.3161 52.4413 21 53.2044 21 54C21 54.7956 21.3161 55.5587 21.8787 56.1213C22.4413 56.6839 23.2044 57 24 57H48C48.7956 57 49.5587 56.6839 50.1213 56.1213C50.6839 55.5587 51 54.7956 51 54C51 53.2044 50.6839 52.4413 50.1213 51.8787C49.5587 51.3161 48.7956 51 48 51ZM48 39H30C29.2044 39 28.4413 39.3161 27.8787 39.8787C27.3161 40.4413 27 41.2044 27 42C27 42.7956 27.3161 43.5587 27.8787 44.1213C28.4413 44.6839 29.2044 45 30 45H48C48.7956 45 49.5587 44.6839 50.1213 44.1213C50.6839 43.5587 51 42.7956 51 42C51 41.2044 50.6839 40.4413 50.1213 39.8787C49.5587 39.3161 48.7956 39 48 39ZM60 21H51V18C51 17.2044 50.6839 16.4413 50.1213 15.8787C49.5587 15.3161 48.7956 15 48 15C47.2044 15 46.4413 15.3161 45.8787 15.8787C45.3161 16.4413 45 17.2044 45 18V21H39V18C39 17.2044 38.6839 16.4413 38.1213 15.8787C37.5587 15.3161 36.7956 15 36 15C35.2044 15 34.4413 15.3161 33.8787 15.8787C33.3161 16.4413 33 17.2044 33 18V21H27V18C27 17.2044 26.6839 16.4413 26.1213 15.8787C25.5587 15.3161 24.7956 15 24 15C23.2044 15 22.4413 15.3161 21.8787 15.8787C21.3161 16.4413 21 17.2044 21 18V21H12C11.2044 21 10.4413 21.3161 9.87868 21.8787C9.31607 22.4413 9 23.2044 9 24V66C9 68.3869 9.94821 70.6761 11.636 72.364C13.3239 74.0518 15.6131 75 18 75H54C56.3869 75 58.6761 74.0518 60.364 72.364C62.0518 70.6761 63 68.3869 63 66V24C63 23.2044 62.6839 22.4413 62.1213 21.8787C61.5587 21.3161 60.7956 21 60 21V21ZM57 66C57 66.7956 56.6839 67.5587 56.1213 68.1213C55.5587 68.6839 54.7956 69 54 69H18C17.2044 69 16.4413 68.6839 15.8787 68.1213C15.3161 67.5587 15 66.7956 15 66V27H21V30C21 30.7956 21.3161 31.5587 21.8787 32.1213C22.4413 32.6839 23.2044 33 24 33C24.7956 33 25.5587 32.6839 26.1213 32.1213C26.6839 31.5587 27 30.7956 27 30V27H33V30C33 30.7956 33.3161 31.5587 33.8787 32.1213C34.4413 32.6839 35.2044 33 36 33C36.7956 33 37.5587 32.6839 38.1213 32.1213C38.6839 31.5587 39 30.7956 39 30V27H45V30C45 30.7956 45.3161 31.5587 45.8787 32.1213C46.4413 32.6839 47.2044 33 48 33C48.7956 33 49.5587 32.6839 50.1213 32.1213C50.6839 31.5587 51 30.7956 51 30V27H57V66Z" fill="white"/>
<path d="M133.136 79.92L114.056 54.936L120.464 50.688L139.328 75.456L133.136 79.92ZM117.152 72.72C113.6 72.72 110.312 72.072 107.288 70.776C104.312 69.48 101.696 67.68 99.44 65.376C97.232 63.024 95.504 60.288 94.256 57.168C93.056 54 92.456 50.544 92.456 46.8C92.456 43.056 93.056 39.624 94.256 36.504C95.504 33.336 97.232 30.6 99.44 28.296C101.696 25.944 104.312 24.12 107.288 22.824C110.312 21.528 113.6 20.88 117.152 20.88C120.704 20.88 123.968 21.528 126.944 22.824C129.968 24.12 132.584 25.944 134.792 28.296C137.048 30.648 138.776 33.408 139.976 36.576C141.224 39.696 141.848 43.104 141.848 46.8C141.848 50.496 141.224 53.928 139.976 57.096C138.776 60.216 137.048 62.952 134.792 65.304C132.584 67.656 129.968 69.48 126.944 70.776C123.968 72.072 120.704 72.72 117.152 72.72ZM117.152 65.16C119.6 65.16 121.832 64.704 123.848 63.792C125.912 62.88 127.688 61.608 129.176 59.976C130.664 58.296 131.816 56.352 132.632 54.144C133.496 51.888 133.928 49.44 133.928 46.8C133.928 44.16 133.496 41.736 132.632 39.528C131.816 37.272 130.664 35.328 129.176 33.696C127.688 32.016 125.912 30.72 123.848 29.808C121.832 28.896 119.6 28.44 117.152 28.44C114.704 28.44 112.448 28.896 110.384 29.808C108.368 30.72 106.592 31.992 105.056 33.624C103.568 35.256 102.416 37.2 101.6 39.456C100.784 41.664 100.376 44.112 100.376 46.8C100.376 50.352 101.096 53.52 102.536 56.304C103.976 59.04 105.944 61.2 108.44 62.784C110.984 64.368 113.888 65.16 117.152 65.16ZM163.752 72.72C161.064 72.72 158.712 72.096 156.696 70.848C154.728 69.6 153.192 67.848 152.088 65.592C151.032 63.336 150.504 60.648 150.504 57.528V34.2H157.92V55.512C157.92 58.824 158.688 61.44 160.224 63.36C161.808 65.28 163.992 66.24 166.776 66.24C168.168 66.24 169.44 66.024 170.592 65.592C171.744 65.112 172.728 64.464 173.544 63.648C174.408 62.832 175.08 61.848 175.56 60.696C176.04 59.544 176.28 58.296 176.28 56.952V34.2H183.696V72H176.28V64.08L177.576 63.216C177 64.992 176.016 66.6 174.624 68.04C173.28 69.48 171.672 70.632 169.8 71.496C167.928 72.312 165.912 72.72 163.752 72.72ZM195.322 72V34.2H202.738V72H195.322ZM198.922 25.848C197.338 25.848 196.114 25.44 195.25 24.624C194.386 23.808 193.954 22.656 193.954 21.168C193.954 19.776 194.386 18.648 195.25 17.784C196.162 16.92 197.386 16.488 198.922 16.488C200.506 16.488 201.73 16.896 202.594 17.712C203.458 18.528 203.89 19.68 203.89 21.168C203.89 22.56 203.434 23.688 202.522 24.552C201.658 25.416 200.458 25.848 198.922 25.848ZM230.193 72.72C226.689 72.72 223.545 71.856 220.761 70.128C218.025 68.4 215.841 66.048 214.209 63.072C212.625 60.096 211.833 56.76 211.833 53.064C211.833 49.368 212.625 46.032 214.209 43.056C215.841 40.08 218.025 37.728 220.761 36C223.545 34.272 226.689 33.408 230.193 33.408C233.553 33.408 236.601 34.104 239.337 35.496C242.121 36.84 244.233 38.688 245.673 41.04L241.569 46.08C240.801 44.976 239.817 43.968 238.617 43.056C237.417 42.144 236.145 41.424 234.801 40.896C233.457 40.368 232.161 40.104 230.913 40.104C228.609 40.104 226.545 40.68 224.721 41.832C222.945 42.936 221.529 44.472 220.473 46.44C219.417 48.408 218.889 50.616 218.889 53.064C218.889 55.512 219.441 57.72 220.545 59.688C221.649 61.608 223.113 63.144 224.937 64.296C226.761 65.448 228.777 66.024 230.985 66.024C232.281 66.024 233.529 65.808 234.729 65.376C235.977 64.944 237.177 64.296 238.329 63.432C239.481 62.568 240.561 61.512 241.569 60.264L245.673 65.304C244.137 67.464 241.929 69.24 239.049 70.632C236.217 72.024 233.265 72.72 230.193 72.72ZM259.436 60.192L259.076 52.128L277.148 34.2H287.156L259.436 60.192ZM252.668 72V18.72H260.084V72H252.668ZM278.156 72L263.9 55.368L269.156 50.544L287.66 72H278.156ZM295.462 72V21.6H315.19C318.79 21.6 322.03 22.2 324.91 23.4C327.838 24.6 330.334 26.328 332.398 28.584C334.462 30.84 336.046 33.504 337.15 36.576C338.254 39.648 338.806 43.056 338.806 46.8C338.806 50.544 338.254 53.976 337.15 57.096C336.046 60.168 334.462 62.832 332.398 65.088C330.382 67.296 327.91 69 324.982 70.2C322.054 71.4 318.79 72 315.19 72H295.462ZM303.238 65.304L303.022 64.512H314.83C317.374 64.512 319.63 64.104 321.598 63.288C323.614 62.472 325.294 61.32 326.638 59.832C328.03 58.296 329.086 56.424 329.806 54.216C330.526 52.008 330.886 49.536 330.886 46.8C330.886 44.064 330.526 41.616 329.806 39.456C329.086 37.248 328.03 35.376 326.638 33.84C325.246 32.304 323.566 31.128 321.598 30.312C319.63 29.496 317.374 29.088 314.83 29.088H302.806L303.238 28.44V65.304ZM364.442 72.72C360.746 72.72 357.434 71.88 354.506 70.2C351.626 68.472 349.346 66.144 347.666 63.216C345.986 60.24 345.146 56.856 345.146 53.064C345.146 49.272 345.986 45.912 347.666 42.984C349.346 40.008 351.626 37.68 354.506 36C357.434 34.272 360.746 33.408 364.442 33.408C368.09 33.408 371.354 34.272 374.234 36C377.162 37.68 379.466 40.008 381.146 42.984C382.826 45.912 383.666 49.272 383.666 53.064C383.666 56.856 382.826 60.24 381.146 63.216C379.466 66.144 377.162 68.472 374.234 70.2C371.354 71.88 368.09 72.72 364.442 72.72ZM364.442 65.952C366.698 65.952 368.714 65.4 370.49 64.296C372.266 63.144 373.658 61.608 374.666 59.688C375.674 57.72 376.154 55.512 376.106 53.064C376.154 50.568 375.674 48.36 374.666 46.44C373.658 44.472 372.266 42.936 370.49 41.832C368.714 40.728 366.698 40.176 364.442 40.176C362.186 40.176 360.146 40.752 358.322 41.904C356.546 43.008 355.154 44.544 354.146 46.512C353.138 48.432 352.658 50.616 352.706 53.064C352.658 55.512 353.138 57.72 354.146 59.688C355.154 61.608 356.546 63.144 358.322 64.296C360.146 65.4 362.186 65.952 364.442 65.952ZM399.628 72L386.74 34.2L394.228 34.128L403.444 62.424L401.788 62.28L411.796 40.176H416.26L426.34 62.352L424.396 62.496L433.684 34.2H441.172L428.428 72H423.316L412.804 47.952L414.46 48.168L404.668 72H399.628ZM447.926 72V34.2H455.342V41.976L454.046 42.84C454.526 41.16 455.462 39.624 456.854 38.232C458.246 36.792 459.902 35.64 461.822 34.776C463.742 33.864 465.71 33.408 467.726 33.408C470.606 33.408 473.006 33.984 474.926 35.136C476.846 36.24 478.286 37.944 479.246 40.248C480.206 42.552 480.686 45.456 480.686 48.96V72H473.27V49.464C473.27 47.304 472.982 45.528 472.406 44.136C471.83 42.696 470.942 41.664 469.742 41.04C468.542 40.368 467.054 40.08 465.278 40.176C463.838 40.176 462.518 40.416 461.318 40.896C460.118 41.328 459.062 41.952 458.15 42.768C457.286 43.584 456.59 44.544 456.062 45.648C455.582 46.704 455.342 47.856 455.342 49.104V72H451.67C451.046 72 450.422 72 449.798 72C449.174 72 448.55 72 447.926 72Z" fill="white"/>
</svg>
